<mxfile host="app.diagrams.net" modified="2023-08-16T10:31:59.714Z" agent="Mozilla/5.0 (Windows NT 10.0; Win64; x64) AppleWebKit/537.36 (KHTML, like Gecko) Chrome/115.0.0.0 Safari/537.36" etag="dgtc80jodJSpbRUxxAL8" version="21.6.8" type="github">
  <diagram id="diHue1xjM9dKSyUA_bX2" name="Страница 1">
    <mxGraphModel dx="1647" dy="-1477" grid="1" gridSize="10" guides="1" tooltips="1" connect="1" arrows="1" fold="1" page="1" pageScale="1" pageWidth="827" pageHeight="1169" math="0" shadow="0">
      <root>
        <mxCell id="0" />
        <mxCell id="1" parent="0" />
        <mxCell id="DBqBX5XTg0c57IkKPr6O-16" value="amqp-rpc" style="verticalAlign=bottom;endArrow=block;shadow=0;strokeWidth=1;fontSize=8;entryX=-0.033;entryY=0.001;entryDx=0;entryDy=0;entryPerimeter=0;fillColor=#f0a30a;strokeColor=#BD7000;" parent="1" edge="1">
          <mxGeometry relative="1" as="geometry">
            <mxPoint x="34" y="2400" as="sourcePoint" />
            <mxPoint x="134.3699999999999" y="2400" as="targetPoint" />
          </mxGeometry>
        </mxCell>
        <mxCell id="DBqBX5XTg0c57IkKPr6O-17" value="http" style="verticalAlign=bottom;endArrow=block;shadow=0;strokeWidth=1;fontSize=8;entryX=-0.033;entryY=0.001;entryDx=0;entryDy=0;entryPerimeter=0;gradientColor=#7ea6e0;fillColor=#dae8fc;strokeColor=#6c8ebf;" parent="1" edge="1">
          <mxGeometry relative="1" as="geometry">
            <mxPoint x="34" y="2430" as="sourcePoint" />
            <mxPoint x="134.3699999999999" y="2430" as="targetPoint" />
          </mxGeometry>
        </mxCell>
        <mxCell id="DBqBX5XTg0c57IkKPr6O-18" value="Прочее (зависит от типа &#xa;коннектора или шлюза&#xa; либо внутренний процесс) " style="verticalAlign=bottom;endArrow=block;shadow=0;strokeWidth=1;fontSize=8;entryX=-0.033;entryY=0.001;entryDx=0;entryDy=0;entryPerimeter=0;" parent="1" edge="1">
          <mxGeometry x="-0.1148" relative="1" as="geometry">
            <mxPoint x="34" y="2480" as="sourcePoint" />
            <mxPoint x="134.3699999999999" y="2480" as="targetPoint" />
            <mxPoint as="offset" />
          </mxGeometry>
        </mxCell>
        <mxCell id="DBqBX5XTg0c57IkKPr6O-19" value="Легенда" style="text;html=1;strokeColor=none;fillColor=none;align=center;verticalAlign=middle;whiteSpace=wrap;rounded=0;fontSize=13;" parent="1" vertex="1">
          <mxGeometry x="50" y="2360" width="40" height="20" as="geometry" />
        </mxCell>
        <mxCell id="DBqBX5XTg0c57IkKPr6O-21" value="frontend" style="shape=umlLifeline;perimeter=lifelinePerimeter;container=1;collapsible=0;recursiveResize=0;rounded=1;shadow=0;strokeWidth=1;fontSize=12;" parent="1" vertex="1">
          <mxGeometry x="180" y="2360" width="106" height="470" as="geometry" />
        </mxCell>
        <mxCell id="DBqBX5XTg0c57IkKPr6O-22" value="" style="points=[];perimeter=orthogonalPerimeter;rounded=1;shadow=0;strokeWidth=1;" parent="DBqBX5XTg0c57IkKPr6O-21" vertex="1">
          <mxGeometry x="48" y="80" width="10" height="350" as="geometry" />
        </mxCell>
        <mxCell id="DBqBX5XTg0c57IkKPr6O-23" value="api-proxy" style="shape=umlLifeline;perimeter=lifelinePerimeter;container=1;collapsible=0;recursiveResize=0;rounded=1;shadow=0;strokeWidth=1;" parent="1" vertex="1">
          <mxGeometry x="330" y="2360" width="110" height="470" as="geometry" />
        </mxCell>
        <mxCell id="DBqBX5XTg0c57IkKPr6O-24" value="" style="points=[];perimeter=orthogonalPerimeter;rounded=1;shadow=0;strokeWidth=1;" parent="DBqBX5XTg0c57IkKPr6O-23" vertex="1">
          <mxGeometry x="50" y="80" width="10" height="350" as="geometry" />
        </mxCell>
        <mxCell id="DBqBX5XTg0c57IkKPr6O-25" value="&lt;font style=&quot;font-size: 10px&quot;&gt;2. Проверка &lt;br&gt;доступности &lt;br&gt;действия&lt;br&gt;&lt;/font&gt;" style="html=1;align=left;spacingLeft=2;endArrow=block;rounded=1;edgeStyle=orthogonalEdgeStyle;curved=0;rounded=0;exitX=1.002;exitY=0.431;exitDx=0;exitDy=0;exitPerimeter=0;" parent="DBqBX5XTg0c57IkKPr6O-23" edge="1">
          <mxGeometry relative="1" as="geometry">
            <mxPoint x="60" y="80" as="sourcePoint" />
            <Array as="points">
              <mxPoint x="80" y="80" />
              <mxPoint x="80" y="129" />
            </Array>
            <mxPoint x="61" y="129" as="targetPoint" />
          </mxGeometry>
        </mxCell>
        <mxCell id="DBqBX5XTg0c57IkKPr6O-26" value="&lt;font style=&quot;font-size: 10px&quot;&gt;10. Проверка&lt;br&gt;output &lt;br&gt;параметров&lt;/font&gt;" style="html=1;align=left;spacingLeft=2;endArrow=block;rounded=1;edgeStyle=orthogonalEdgeStyle;curved=0;rounded=0;exitX=-0.026;exitY=0.355;exitDx=0;exitDy=0;exitPerimeter=0;entryX=0.012;entryY=0.449;entryDx=0;entryDy=0;entryPerimeter=0;" parent="DBqBX5XTg0c57IkKPr6O-23" edge="1">
          <mxGeometry y="-74" relative="1" as="geometry">
            <mxPoint x="50" y="280" as="sourcePoint" />
            <Array as="points">
              <mxPoint x="24.5" y="280" />
              <mxPoint x="24.5" y="320" />
            </Array>
            <mxPoint x="50" y="320" as="targetPoint" />
            <mxPoint as="offset" />
          </mxGeometry>
        </mxCell>
        <mxCell id="DBqBX5XTg0c57IkKPr6O-27" value="api-workflow" style="shape=umlLifeline;perimeter=lifelinePerimeter;container=1;collapsible=0;recursiveResize=0;rounded=1;shadow=0;strokeWidth=1;size=40;" parent="1" vertex="1">
          <mxGeometry x="490" y="2360" width="101" height="470" as="geometry" />
        </mxCell>
        <mxCell id="DBqBX5XTg0c57IkKPr6O-28" value="" style="points=[];perimeter=orthogonalPerimeter;rounded=1;shadow=0;strokeWidth=1;" parent="DBqBX5XTg0c57IkKPr6O-27" vertex="1">
          <mxGeometry x="45.5" y="210" width="10" height="220" as="geometry" />
        </mxCell>
        <mxCell id="DBqBX5XTg0c57IkKPr6O-29" value="9. Запрос на проверку&lt;br&gt;output параметров" style="html=1;verticalAlign=bottom;endArrow=block;fontSize=10;gradientColor=#ffa500;fillColor=#ffcd28;strokeColor=#d79b00;" parent="DBqBX5XTg0c57IkKPr6O-27" edge="1">
          <mxGeometry x="-0.097" width="80" relative="1" as="geometry">
            <mxPoint x="192" y="280" as="sourcePoint" />
            <mxPoint x="-100" y="280" as="targetPoint" />
            <mxPoint as="offset" />
          </mxGeometry>
        </mxCell>
        <mxCell id="DBqBX5XTg0c57IkKPr6O-30" value="connector" style="shape=umlLifeline;perimeter=lifelinePerimeter;container=1;collapsible=0;recursiveResize=0;rounded=1;shadow=0;strokeWidth=1;" parent="1" vertex="1">
          <mxGeometry x="636" y="2360" width="101" height="470" as="geometry" />
        </mxCell>
        <mxCell id="DBqBX5XTg0c57IkKPr6O-31" value="" style="points=[];perimeter=orthogonalPerimeter;rounded=1;shadow=0;strokeWidth=1;" parent="DBqBX5XTg0c57IkKPr6O-30" vertex="1">
          <mxGeometry x="45.5" y="210" width="10" height="220" as="geometry" />
        </mxCell>
        <mxCell id="DBqBX5XTg0c57IkKPr6O-32" value="&lt;font style=&quot;font-size: 10px&quot;&gt;6.&amp;nbsp;Вызов метода с авторизацией&lt;br style=&quot;padding: 0px ; margin: 0px&quot;&gt;для подключения&lt;br&gt;&amp;nbsp;к внешней системе&lt;/font&gt;" style="html=1;verticalAlign=bottom;endArrow=block;edgeStyle=elbowEdgeStyle;elbow=vertical;curved=0;rounded=1;exitX=1.014;exitY=0.2;exitDx=0;exitDy=0;exitPerimeter=0;entryX=0.025;entryY=0;entryDx=0;entryDy=0;entryPerimeter=0;" parent="DBqBX5XTg0c57IkKPr6O-30" target="DBqBX5XTg0c57IkKPr6O-34" edge="1">
          <mxGeometry x="0.1148" width="80" relative="1" as="geometry">
            <mxPoint x="55.5" y="210" as="sourcePoint" />
            <mxPoint x="210.1500000000001" y="212.34000000000015" as="targetPoint" />
            <mxPoint as="offset" />
          </mxGeometry>
        </mxCell>
        <mxCell id="DBqBX5XTg0c57IkKPr6O-33" value="Внешняя система" style="shape=umlLifeline;perimeter=lifelinePerimeter;container=1;collapsible=0;recursiveResize=0;rounded=1;shadow=0;strokeWidth=1;" parent="1" vertex="1">
          <mxGeometry x="800" y="2360" width="110" height="470" as="geometry" />
        </mxCell>
        <mxCell id="DBqBX5XTg0c57IkKPr6O-34" value="" style="points=[];perimeter=orthogonalPerimeter;rounded=1;shadow=0;strokeWidth=1;" parent="DBqBX5XTg0c57IkKPr6O-33" vertex="1">
          <mxGeometry x="50" y="210" width="10" height="220" as="geometry" />
        </mxCell>
        <mxCell id="DBqBX5XTg0c57IkKPr6O-35" value="&lt;font style=&quot;font-size: 10px&quot;&gt;7. Обработка &lt;br&gt;запроса&lt;/font&gt;" style="html=1;align=left;spacingLeft=2;endArrow=block;rounded=1;edgeStyle=orthogonalEdgeStyle;curved=0;rounded=0;exitX=1.002;exitY=0.431;exitDx=0;exitDy=0;exitPerimeter=0;" parent="DBqBX5XTg0c57IkKPr6O-33" edge="1">
          <mxGeometry relative="1" as="geometry">
            <mxPoint x="60" y="209.99999999999955" as="sourcePoint" />
            <Array as="points">
              <mxPoint x="80" y="210" />
              <mxPoint x="80" y="259" />
            </Array>
            <mxPoint x="60.98000000000002" y="258.98" as="targetPoint" />
          </mxGeometry>
        </mxCell>
        <mxCell id="DBqBX5XTg0c57IkKPr6O-36" value="" style="html=1;verticalAlign=bottom;endArrow=open;dashed=1;endSize=8;" parent="DBqBX5XTg0c57IkKPr6O-33" edge="1">
          <mxGeometry relative="1" as="geometry">
            <mxPoint x="50.000000000000114" y="260" as="sourcePoint" />
            <mxPoint x="-110" y="260" as="targetPoint" />
            <Array as="points" />
          </mxGeometry>
        </mxCell>
        <mxCell id="DBqBX5XTg0c57IkKPr6O-37" value="1. Вызов действия ЖЦ&#xa; для запуска коннектора" style="verticalAlign=bottom;endArrow=block;shadow=0;strokeWidth=1;fontSize=10;gradientColor=#7ea6e0;fillColor=#dae8fc;strokeColor=#6c8ebf;" parent="1" target="DBqBX5XTg0c57IkKPr6O-23" edge="1">
          <mxGeometry x="-0.0017" relative="1" as="geometry">
            <mxPoint x="236.5" y="2440" as="sourcePoint" />
            <mxPoint x="340" y="2440" as="targetPoint" />
            <mxPoint as="offset" />
          </mxGeometry>
        </mxCell>
        <mxCell id="DBqBX5XTg0c57IkKPr6O-38" value="&lt;font style=&quot;font-size: 10px;&quot;&gt;alt. Наличие ошибок&lt;/font&gt;" style="shape=umlFrame;whiteSpace=wrap;html=1;pointerEvents=0;width=70;height=30;rounded=1;" parent="1" vertex="1">
          <mxGeometry x="150" y="2500" width="260" height="50" as="geometry" />
        </mxCell>
        <mxCell id="DBqBX5XTg0c57IkKPr6O-39" value="&lt;span style=&quot;font-size: 10px&quot;&gt;3.а. Возврат в ответе ошибки&lt;/span&gt;" style="html=1;verticalAlign=bottom;endArrow=open;dashed=1;endSize=8;fontSize=12;gradientColor=#7ea6e0;fillColor=#dae8fc;strokeColor=#6c8ebf;" parent="1" edge="1">
          <mxGeometry relative="1" as="geometry">
            <mxPoint x="380" y="2530" as="sourcePoint" />
            <mxPoint x="235.5" y="2530" as="targetPoint" />
          </mxGeometry>
        </mxCell>
        <mxCell id="DBqBX5XTg0c57IkKPr6O-40" value="4. Передача исходного &#xa;запроса для вызова ЖЦ" style="verticalAlign=bottom;endArrow=block;shadow=0;strokeWidth=1;fontSize=10;gradientColor=#7ea6e0;fillColor=#dae8fc;strokeColor=#6c8ebf;entryX=0.021;entryY=-0.001;entryDx=0;entryDy=0;entryPerimeter=0;" parent="1" target="DBqBX5XTg0c57IkKPr6O-28" edge="1">
          <mxGeometry x="0.0981" relative="1" as="geometry">
            <mxPoint x="390" y="2570" as="sourcePoint" />
            <mxPoint x="520" y="2570" as="targetPoint" />
            <mxPoint as="offset" />
          </mxGeometry>
        </mxCell>
        <mxCell id="DBqBX5XTg0c57IkKPr6O-41" value="5. Вызов коннектора" style="verticalAlign=bottom;endArrow=block;shadow=0;strokeWidth=1;fontSize=10;exitX=1.015;exitY=0.134;exitDx=0;exitDy=0;exitPerimeter=0;fillColor=#f0a30a;strokeColor=#BD7000;" parent="1" edge="1">
          <mxGeometry relative="1" as="geometry">
            <mxPoint x="540.5" y="2571" as="sourcePoint" />
            <mxPoint x="680" y="2570" as="targetPoint" />
          </mxGeometry>
        </mxCell>
        <mxCell id="DBqBX5XTg0c57IkKPr6O-42" value="&lt;font style=&quot;font-size: 10px&quot;&gt;8. Ответ с output параметрами&lt;/font&gt;" style="text;html=1;align=center;verticalAlign=middle;resizable=0;points=[];autosize=1;strokeColor=none;fillColor=none;rounded=1;" parent="1" vertex="1">
          <mxGeometry x="690" y="2603" width="160" height="20" as="geometry" />
        </mxCell>
        <mxCell id="DBqBX5XTg0c57IkKPr6O-43" value="&lt;span style=&quot;font-size: 10px&quot;&gt;11. Ответ с&amp;nbsp;&lt;/span&gt;&lt;br style=&quot;font-size: 10px&quot;&gt;&lt;span style=&quot;font-size: 10px&quot;&gt;результатами проверки&lt;/span&gt;" style="html=1;verticalAlign=bottom;endArrow=open;dashed=1;endSize=8;gradientColor=#ffa500;fillColor=#ffcd28;strokeColor=#d79b00;exitX=1.081;exitY=0.685;exitDx=0;exitDy=0;exitPerimeter=0;" parent="1" source="DBqBX5XTg0c57IkKPr6O-24" edge="1">
          <mxGeometry relative="1" as="geometry">
            <mxPoint x="530" y="2810" as="sourcePoint" />
            <mxPoint x="680" y="2683" as="targetPoint" />
          </mxGeometry>
        </mxCell>
        <mxCell id="DBqBX5XTg0c57IkKPr6O-44" value="&lt;font style=&quot;font-size: 10px&quot;&gt;12. Передача&amp;nbsp;output&lt;br&gt;&amp;nbsp;параметров&lt;br&gt;&amp;nbsp; или ошибки&amp;nbsp;&amp;nbsp;от api-proxy&amp;nbsp;&lt;/font&gt;" style="html=1;verticalAlign=bottom;endArrow=open;dashed=1;endSize=8;fontSize=10;gradientColor=#ffa500;fillColor=#ffcd28;strokeColor=#d79b00;" parent="1" edge="1">
          <mxGeometry x="0.0025" relative="1" as="geometry">
            <mxPoint x="677.25" y="2740" as="sourcePoint" />
            <mxPoint x="549" y="2741" as="targetPoint" />
            <Array as="points" />
            <mxPoint as="offset" />
          </mxGeometry>
        </mxCell>
        <mxCell id="DBqBX5XTg0c57IkKPr6O-45" value="&lt;font style=&quot;font-size: 10px&quot;&gt;13. Возврат в ответе &lt;br&gt;на вызов ЖЦ output&lt;br&gt;параметров или ошибки&lt;br&gt;&lt;/font&gt;" style="html=1;verticalAlign=bottom;endArrow=open;dashed=1;endSize=8;fontSize=12;gradientColor=#7ea6e0;fillColor=#dae8fc;strokeColor=#6c8ebf;exitX=-0.136;exitY=0.857;exitDx=0;exitDy=0;exitPerimeter=0;entryX=1.267;entryY=0.904;entryDx=0;entryDy=0;entryPerimeter=0;" parent="1" source="DBqBX5XTg0c57IkKPr6O-28" target="DBqBX5XTg0c57IkKPr6O-24" edge="1">
          <mxGeometry x="-0.0048" relative="1" as="geometry">
            <mxPoint x="528" y="2760" as="sourcePoint" />
            <mxPoint x="389.99999999999955" y="2760" as="targetPoint" />
            <mxPoint as="offset" />
          </mxGeometry>
        </mxCell>
        <mxCell id="DBqBX5XTg0c57IkKPr6O-46" value="&lt;font style=&quot;font-size: 10px&quot;&gt;14. Возврат ответа&lt;br&gt;&lt;/font&gt;" style="html=1;verticalAlign=bottom;endArrow=open;dashed=1;endSize=8;fontSize=12;gradientColor=#7ea6e0;fillColor=#dae8fc;strokeColor=#6c8ebf;exitX=-0.136;exitY=0.857;exitDx=0;exitDy=0;exitPerimeter=0;entryX=1.267;entryY=0.904;entryDx=0;entryDy=0;entryPerimeter=0;" parent="1" edge="1">
          <mxGeometry x="-0.0048" relative="1" as="geometry">
            <mxPoint x="379" y="2760" as="sourcePoint" />
            <mxPoint x="237.5300000000002" y="2757.8599999999997" as="targetPoint" />
            <mxPoint as="offset" />
          </mxGeometry>
        </mxCell>
      </root>
    </mxGraphModel>
  </diagram>
</mxfile>
